<svg width="24" height="24" viewBox="0 0 24 24" fill="none" xmlns="http://www.w3.org/2000/svg">
<path d="M21.7223 16.7834V19.7C21.7234 19.9708 21.6679 20.2388 21.5594 20.4869C21.451 20.735 21.2919 20.9577 21.0923 21.1407C20.8928 21.3238 20.6573 21.4631 20.4008 21.5499C20.1443 21.6366 19.8725 21.6688 19.6028 21.6445C16.6111 21.3194 13.7374 20.2971 11.2125 18.6597C8.86349 17.1671 6.8719 15.1755 5.37921 12.8264C3.73613 10.2901 2.71361 7.40238 2.39449 4.39725C2.37019 4.1284 2.40214 3.85743 2.48831 3.60161C2.57447 3.34578 2.71296 3.1107 2.89495 2.91132C3.07695 2.71195 3.29846 2.55266 3.5454 2.44359C3.79233 2.33452 4.05926 2.27806 4.32921 2.2778H7.24588C7.7177 2.27316 8.17512 2.44024 8.53287 2.74791C8.89062 3.05557 9.12429 3.48282 9.19032 3.95003C9.31343 4.88342 9.54173 5.7999 9.87088 6.68197C10.0017 7.02995 10.03 7.40814 9.95245 7.77172C9.87491 8.13529 9.69477 8.46902 9.43338 8.73336L8.19866 9.96808C9.58267 12.4021 11.598 14.4174 14.032 15.8014L15.2667 14.5667C15.531 14.3053 15.8648 14.1252 16.2284 14.0476C16.5919 13.9701 16.9701 13.9984 17.3181 14.1292C18.2002 14.4583 19.1166 14.6866 20.05 14.8097C20.5223 14.8764 20.9536 15.1143 21.262 15.4781C21.5703 15.842 21.7341 16.3066 21.7223 16.7834Z" stroke="#129F64" stroke-width="2" stroke-linecap="round" stroke-linejoin="round"/>
</svg>
