<svg width="147" height="348" viewBox="0 0 147 348" fill="none" xmlns="http://www.w3.org/2000/svg">
<path fill-rule="evenodd" clip-rule="evenodd" d="M37.3855 0.142563C57.6757 4.44938 63.4419 26.4623 64.5399 38.5224L65.6456 38.0115C68.1854 43.5077 71.6363 55.5258 74.6123 74.552C83.1835 61.8386 107.789 32.8386 119.986 53.015C126.588 63.9354 101.37 73.8994 75.7408 82.2921C76.849 90.4574 77.8612 99.7408 78.6897 110.185C86.6251 100.47 101.201 88.356 118.713 94.0515C129.02 97.4036 99.9896 121.359 79.4846 121.517C80.0356 130.505 80.45 140.243 80.6833 150.751C93.4859 132.669 125.529 96.851 141.699 123.341C150.772 138.206 116.093 151.767 80.8694 163.189C80.8883 165.589 80.898 168.025 80.898 170.498C80.898 176.881 80.8333 183.215 80.7117 189.481C91.8157 174.356 115.372 151.748 144.179 161.17C160.297 166.442 101.288 205.838 80.3622 202.942C80.0537 212.452 79.6229 221.764 79.0986 230.804C100.619 197.42 141.622 193.872 138.395 209.2C131.634 241.314 95.4298 249.32 77.7937 250.382C76.9117 262.105 75.8955 273.221 74.818 283.544C102.562 259.845 137.52 238.026 134.174 253.918C127.411 286.046 91.1783 294.046 73.5506 295.102C70.8668 318.435 67.9905 336.744 65.9429 347.415L58.0862 345.908C60.26 334.579 63.4053 314.356 66.2389 288.528C22.9116 287.392 -10.4714 251.486 3.04138 240.549C30.2223 218.549 57.2351 253.904 68.0396 270.814C69.2734 257.651 70.3773 243.418 71.2199 228.453C35.2871 216.393 -7.61601 193.768 8.62276 188.457C37.2083 179.107 60.6236 201.296 71.8318 216.417C72.3381 205.25 72.6872 193.741 72.8282 182.021C44.7099 172.717 11.1479 155.269 23.8542 151.172C45.8698 144.074 63.9667 160.539 72.8965 172.181C72.8975 171.62 72.898 171.059 72.898 170.498C72.898 163.012 72.8083 155.871 72.6418 149.066C37.4846 137.657 2.94934 124.118 12.006 109.281C27.8384 83.3437 58.8882 117.141 72.195 135.536C71.6408 122.304 70.7915 110.518 69.7644 100.122C52.1941 99.1027 15.7712 91.1501 8.98815 58.9292C5.59931 42.8316 45.0965 58.6375 68.1783 86.1258C67.9107 84.0499 67.6367 82.0451 67.3577 80.1108C66.5129 74.2529 65.6253 69.0609 64.736 64.5102C37.0615 62.3745 14.8693 41.0455 25.407 37.6183C40.0704 32.8492 52.6752 40.5671 61.0466 48.9073C60.164 45.8882 59.3482 43.5862 58.6519 41.9696C42.5153 23.3362 26.6606 -2.1339 37.3855 0.142563Z" fill="#E7FEDE"/>
</svg>
