<svg width="187" height="188" viewBox="0 0 187 188" fill="none" xmlns="http://www.w3.org/2000/svg">
<path d="M181.003 91.6918C189.263 87.443 187.664 75.1544 178.607 73.2228L153.036 67.7575C147.325 66.5367 143.942 60.6288 145.742 55.0575L153.821 30.0604C156.685 21.2087 146.888 13.6688 139.112 18.7285L117.129 33.0298C112.231 36.2238 105.667 34.4647 103.011 29.2467L91.1315 5.88443C86.9189 -2.39996 74.6759 -0.765614 72.7279 8.34403L67.2251 34.0312C65.996 39.7681 60.1039 43.1784 54.5591 41.3832L29.681 33.3305C20.8715 30.4748 13.3421 40.3174 18.3604 48.1244L32.5564 70.1515C35.7262 75.0615 33.959 81.6569 28.7558 84.3357L5.44805 96.3137C-2.81291 100.563 -1.21352 112.851 7.85508 114.786L33.4265 120.251C39.1375 121.472 42.5205 127.38 40.7196 132.951L32.6415 157.948C29.7768 166.8 39.5739 174.34 47.3498 169.28L69.3215 154.976C74.2307 151.785 80.7956 153.544 83.4401 158.759L95.316 182.133C99.5286 190.417 111.772 188.783 113.72 179.673L119.222 153.986C120.451 148.249 126.344 144.839 131.888 146.634L156.767 154.687C165.576 157.542 173.109 147.688 168.076 139.89L153.88 117.863C150.71 112.953 152.477 106.357 157.68 103.678L181.003 91.6918Z" fill="#C3F9AD"/>
</svg>
