<svg width="239" height="331" viewBox="0 0 239 331" fill="none" xmlns="http://www.w3.org/2000/svg">
<path d="M43.8505 12.0944C52.9233 26.4255 63.9804 45.4513 75.5296 67.5336M152.118 330.202C153.722 308.952 151.864 285.839 147.553 261.971M75.5296 67.5336C75.0854 52.7232 75.1738 21.4861 79.0807 15.0204M75.5296 67.5336C77.1694 70.6687 78.819 73.8655 80.4743 77.1192M80.4743 77.1192C68.567 72.5734 43.6568 62.9632 39.274 60.8892C33.7955 58.2966 11.1194 43.2071 6.25995 44.9307M80.4743 77.1192C83.769 83.5954 87.0861 90.2971 90.392 97.1873M90.392 97.1873C93.5609 75.6526 103.51 26.3129 117.956 1.23188M90.392 97.1873C92.29 101.143 94.1843 105.161 96.0685 109.235M96.0685 109.235C84.1554 103.481 48.3382 91.3294 0.373615 88.7472M96.0685 109.235C97.0841 111.43 98.0967 113.642 99.1055 115.868M99.1055 115.868C106.078 106.592 122.282 83.6087 131.316 65.8903C140.349 48.1718 155.52 21.0196 161.976 9.65834M99.1055 115.868C101.959 122.167 104.782 128.585 107.55 135.098M107.55 135.098C98.1687 137.367 75.8095 141.276 61.4222 138.759C43.438 135.613 15.6636 131.856 6.32594 133.808M107.55 135.098C108.496 137.325 109.436 139.562 110.369 141.809M104.692 127.041C116.417 111.694 151.457 77.4335 197.822 63.1659M110.369 141.809C118.128 140.116 137.204 136.736 151.44 136.767C165.675 136.798 202.059 118.813 218.472 109.817M110.369 141.809C112.598 147.181 114.786 152.609 116.92 158.082M116.92 158.082C105.344 159.164 78.4666 162.649 63.5642 167.935C48.6619 173.221 19.1783 177.328 6.29935 178.721M116.92 158.082C118.212 161.396 119.485 164.725 120.735 168.068M126.956 185.365C105.349 188.493 56.1875 199.58 32.404 218.901M126.956 185.365C124.958 179.571 122.879 173.8 120.735 168.068M126.956 185.365C128.352 189.411 129.708 193.468 131.022 197.531M120.735 168.068C139.473 170.04 186.887 170.641 226.639 157.267M131.022 197.531C136.159 200.849 151.497 206.597 171.754 203.041C197.076 198.596 218.823 207.211 237.927 204.517M131.022 197.531C132.737 202.839 134.379 208.159 135.936 213.477M135.936 213.477C129.97 211.36 113.661 209.948 96.1472 221.239C78.6338 232.531 48.1319 243.108 35.0702 246.984M135.936 213.477C137.185 217.744 138.379 222.009 139.513 226.269M141.34 233.332C121.273 240.903 75.5067 261.762 52.9808 284.628M141.34 233.332C140.75 230.98 140.141 228.625 139.513 226.269M141.34 233.332C142.891 239.51 144.308 245.668 145.576 251.787M139.513 226.269C160.272 234.328 208.358 250.202 234.637 249.227M145.576 251.787C146.282 255.195 146.942 258.59 147.553 261.971M145.576 251.787C153.152 253.618 176.469 263.228 209.131 287.021M147.553 261.971C129.932 267.163 87.9395 286.018 60.9346 319.907" stroke="#FFB3DA" stroke-width="4" stroke-linejoin="round"/>
</svg>
