<svg width="196" height="197" viewBox="0 0 196 197" fill="none" xmlns="http://www.w3.org/2000/svg">
<path d="M168.178 40.4683C172.211 31.7214 163.065 22.6792 154.438 26.8731L130.076 38.7044C124.635 41.3466 118.104 38.6663 116.02 32.9561L106.665 7.33672C103.356 -1.73794 90.5478 -1.66439 87.4282 7.4371L78.6068 33.1656C76.6465 38.904 70.1649 41.65 64.6675 39.0711L40.0643 27.5166C31.3397 23.4195 22.3879 32.5649 26.6098 41.2662L38.5068 65.8084C41.1636 71.2896 38.5295 77.8393 32.8576 79.9052L7.41057 89.1758C-1.60308 92.4552 -1.4699 105.316 7.60784 108.508L33.2507 117.492C38.971 119.491 41.7364 126.018 39.1979 131.53L27.813 156.201C23.78 164.947 32.9261 173.99 41.5636 169.791L65.9259 157.96C71.3669 155.317 77.8981 157.998 79.9825 163.708L89.3368 189.327C92.6458 198.402 105.454 198.328 108.574 189.227L117.384 163.503C119.356 157.76 125.837 155.014 131.323 157.598L155.931 169.164C164.656 173.261 173.608 164.115 169.386 155.414L157.489 130.872C154.832 125.391 157.466 118.841 163.138 116.775L188.585 107.504C197.599 104.225 197.461 91.3531 188.376 88.1768L162.734 79.1932C157.013 77.1941 154.248 70.6667 156.786 65.1553L168.178 40.4683Z" fill="#FBCCE4"/>
</svg>
