<svg width="137" height="256" viewBox="0 0 137 256" fill="none" xmlns="http://www.w3.org/2000/svg">
<path d="M0 211.342C0 192.113 12.4201 175.757 29.6121 169.926C12.4201 164.095 0 147.722 0 128.51V127.541C0 108.311 12.4201 91.9548 29.6121 86.1241C12.4201 80.2767 0 63.9039 0 44.6743V43.7053C0 20.6163 17.9069 1.65398 40.4859 0.100241C40.7021 0.0334138 40.9349 0 41.1676 0H152.832C153.065 0 153.298 0.0334138 153.514 0.100241C176.11 1.65398 194 20.6163 194 43.7053V44.6743C194 63.9039 181.58 80.26 164.388 86.0907C181.597 91.9214 194 108.294 194 127.507V128.476C194 147.706 181.58 164.062 164.388 169.909C181.597 175.74 194 192.113 194 211.326V212.295C194 236.386 174.497 256 150.505 256H43.4954C19.5031 256.033 0 236.419 0 212.328V211.342Z" fill="#FBCCE4"/>
</svg>
