<svg width="130" height="132" viewBox="0 0 130 132" fill="none" xmlns="http://www.w3.org/2000/svg">
<path d="M127.567 47.2565C132.68 42.568 129.168 33.9635 122.295 34.3228L102.887 35.3287C98.5523 35.5533 94.9874 31.9246 95.2085 27.5325L96.1993 7.82648C96.5531 0.847628 88.0699 -2.71814 83.4612 2.46435L70.4312 17.1136C67.5298 20.383 62.4788 20.383 59.5685 17.1136L46.5473 2.47333C41.9298 -2.71814 33.4554 0.847629 33.8093 7.83546L34.8 27.5415C35.0211 31.9426 31.4474 35.5622 27.1218 35.3377L7.71392 34.3317C0.840667 33.9725 -2.67115 42.577 2.43292 47.2655L16.8606 60.4867C20.0805 63.4327 20.0805 68.5613 16.8606 71.5163L2.43292 84.7375C-2.68 89.426 0.831821 98.0306 7.71392 97.6713L27.1218 96.6653C31.4563 96.4408 35.0211 100.069 34.8 104.462L33.8093 124.168C33.4554 131.146 41.9386 134.712 46.5473 129.53L59.5685 114.88C62.4788 111.611 67.5298 111.611 70.4312 114.88L83.4524 129.53C88.0699 134.721 96.5443 131.155 96.1904 124.168L95.1997 104.462C94.9785 100.06 98.5523 96.4408 102.878 96.6653L122.286 97.6713C129.159 98.0306 132.671 89.417 127.558 84.7375L113.13 71.5163C109.91 68.5703 109.91 63.4417 113.13 60.4867L127.567 47.2565Z" fill="#FEDF92"/>
</svg>
